<?xml version="1.0" standalone="no"?>
<!DOCTYPE svg PUBLIC "-//W3C//DTD SVG 20010904//EN"
 "http://www.w3.org/TR/2001/REC-SVG-20010904/DTD/svg10.dtd">
<svg version="1.0" xmlns="http://www.w3.org/2000/svg"
 width="120" height="50" viewBox="0 0 300 120"
 preserveAspectRatio="xMidYMid meet">
<metadata>
Created by potrace 1.10, written by Peter Selinger 2001-2011
</metadata>
<g transform="translate(0.000000,116.000000) scale(0.100000,-0.100000)"
fill="#000000" stroke="none">
<path d="M1412 1118 c-115 -17 -200 -90 -233 -200 -18 -59 -12 -190 11 -251
27 -71 91 -136 158 -160 62 -23 146 -25 192 -5 21 9 43 12 55 7 41 -16 91 -10
113 14 18 19 22 35 22 86 0 47 5 72 21 98 26 41 21 106 -8 128 -10 8 -45 17
-77 21 l-59 7 50 19 c57 21 78 51 69 95 -9 39 -64 99 -109 118 -53 22 -143 32
-205 23z m198 -61 c45 -22 77 -64 82 -107 3 -21 -3 -25 -57 -36 -82 -18 -85
-17 -85 11 0 30 -26 45 -79 45 -90 0 -121 -40 -121 -157 0 -122 35 -173 122
-173 61 0 88 15 88 50 0 29 -2 30 -45 30 l-45 0 0 50 0 50 136 0 c120 0 135
-2 130 -16 -3 -9 -6 -31 -6 -50 0 -27 -4 -34 -20 -34 -19 0 -20 -7 -20 -95 l0
-95 -40 0 c-34 0 -41 4 -46 25 -6 24 -8 25 -24 10 -36 -32 -109 -47 -175 -35
-83 16 -133 52 -170 125 -27 52 -30 68 -30 149 0 129 30 195 110 241 84 50
210 55 295 12z m-85 -154 c35 -39 32 -53 -12 -53 -20 0 -45 -7 -55 -17 -23
-21 -24 -94 -1 -129 16 -25 16 -26 -7 -22 -42 6 -64 50 -64 131 -1 57 3 77 19
95 29 33 86 30 120 -5z"/>
<path d="M110 1112 c-54 -4 -79 -30 -80 -84 0 -27 8 -46 30 -71 30 -34 30 -36
30 -154 l0 -119 -30 -29 c-58 -56 -31 -154 43 -156 18 0 113 0 212 0 169 1
180 3 202 23 20 19 23 31 23 100 0 91 -8 110 -50 128 -16 7 -30 15 -31 19 -6
38 -2 76 9 85 48 38 73 68 68 82 -3 9 -6 44 -6 80 0 91 -5 94 -211 97 -90 1
-184 1 -209 -1z m390 -122 l0 -90 -56 0 -57 0 6 35 6 35 -70 0 -69 0 0 -55 0
-55 80 0 80 0 0 -56 0 -55 -80 7 -80 7 0 -62 0 -61 70 0 70 0 0 40 0 40 53 0
52 0 -2 -91 -1 -91 -221 -1 -221 -2 0 48 0 47 35 0 35 0 0 175 0 175 -35 0
-35 0 0 50 0 50 220 0 220 0 0 -90z m-145 -75 c0 -5 -10 -11 -22 -13 -16 -2
-23 2 -23 13 0 11 7 15 23 13 12 -2 22 -7 22 -13z m-1 -210 c7 -18 -16 -30
-40 -21 -13 5 -14 9 -4 21 16 19 36 19 44 0z"/>
<path d="M755 1108 c-80 -28 -135 -102 -135 -182 0 -58 13 -90 56 -143 l36
-43 -31 -6 c-41 -8 -84 -59 -75 -88 19 -66 80 -123 155 -145 20 -6 68 -11 107
-11 57 0 79 5 123 28 135 70 151 239 31 329 l-42 32 40 12 c46 14 72 39 74 71
4 52 -52 118 -123 143 -49 17 -170 19 -216 3z m192 -33 c91 -27 151 -126 86
-141 -16 -3 -43 -10 -62 -15 -38 -9 -39 -9 -55 23 -21 42 -126 33 -126 -11 0
-24 30 -43 112 -70 125 -42 173 -94 165 -182 -8 -98 -82 -152 -208 -152 -59 0
-88 6 -123 23 -53 25 -96 75 -96 112 0 23 6 26 57 37 76 15 83 14 83 -8 0 -41
82 -67 131 -41 22 12 25 43 5 59 -7 6 -46 22 -86 36 -39 13 -88 34 -107 46
-38 24 -72 86 -73 132 -1 122 145 197 297 152z"/>
<path d="M2194 1074 c-31 -15 -93 -101 -140 -194 l-26 -52 23 -24 c31 -33 163
-104 193 -104 29 0 44 18 114 135 26 43 52 80 58 82 12 4 62 -73 73 -112 4
-16 11 -20 24 -16 15 6 12 16 -28 85 -25 44 -45 83 -45 88 0 5 20 29 45 53 39
40 50 45 89 45 37 0 52 -6 81 -32 20 -17 45 -48 56 -70 21 -42 27 -44 54 -24
18 13 18 14 -3 20 -12 4 -29 20 -37 36 -36 69 -120 110 -188 90 -30 -8 -55 -8
-87 -1 -69 16 -219 13 -256 -5z m259 -43 c-16 -15 -66 -92 -112 -170 -46 -77
-86 -143 -90 -145 -3 -2 -46 20 -96 50 -49 29 -94 55 -98 56 -9 4 82 158 123
211 l22 27 140 0 140 0 -29 -29z"/>
<path d="M2754 878 c-23 -35 -47 -73 -53 -85 -11 -21 -18 -23 -109 -23 -66 0
-92 -3 -82 -10 8 -5 54 -10 102 -10 l88 0 31 43 c41 57 71 115 67 133 -2 9
-21 -12 -44 -48z"/>
<path d="M2745 759 c-64 -33 -116 -67 -127 -84 -17 -23 -6 -62 41 -144 27 -47
52 -96 56 -108 5 -20 3 -23 -22 -24 -58 -2 -108 3 -119 12 -8 6 -13 3 -17 -10
-3 -11 -2 -22 1 -25 3 -3 45 -6 94 -6 l89 0 19 -42 c25 -55 25 -85 0 -125 -28
-46 -72 -65 -147 -65 -60 0 -63 -1 -63 -23 0 -30 14 -39 30 -20 7 9 30 15 54
15 81 1 166 63 166 123 0 10 17 39 38 65 20 26 43 56 49 67 96 159 96 157 33
279 -53 102 -84 146 -105 146 -6 0 -37 -14 -70 -31z m138 -96 c31 -59 57 -118
57 -132 0 -14 -27 -71 -60 -125 -33 -55 -60 -103 -60 -108 0 -4 -4 -8 -9 -8
-5 0 -12 15 -15 33 -3 18 -23 62 -44 97 -21 36 -59 104 -85 152 l-47 86 72 41
c40 22 82 47 93 55 11 9 25 15 30 16 6 0 36 -48 68 -107z"/>
<path d="M1940 728 c-22 -11 -14 -13 72 -18 l98 -5 47 -80 c29 -50 48 -74 51
-63 4 20 -51 129 -78 153 -25 23 -153 31 -190 13z"/>
<path d="M1913 673 c0 -16 -11 -54 -23 -86 -20 -50 -22 -62 -11 -97 6 -21 25
-51 41 -67 17 -15 30 -35 30 -44 0 -9 12 -38 26 -65 14 -27 40 -76 58 -108 43
-81 64 -92 195 -100 109 -6 157 1 173 27 4 7 8 58 8 114 0 141 -2 143 -165
143 -67 0 -124 3 -128 6 -8 8 25 73 57 111 14 17 23 33 19 37 -17 17 -36 0
-74 -69 -45 -82 -53 -86 -130 -65 -50 14 -80 50 -86 102 -4 34 2 55 26 103 28
55 29 61 14 73 -25 18 -30 15 -30 -15z m284 -310 l182 -5 3 -115 3 -115 -132
4 c-90 3 -136 8 -147 17 -13 11 -119 188 -135 225 -2 5 7 6 20 1 13 -4 106
-10 206 -12z"/>
<path d="M635 468 c-126 -24 -198 -150 -165 -290 17 -71 85 -139 155 -157 85
-21 181 9 229 72 28 37 55 106 57 146 l2 26 4 -25 c25 -148 99 -220 228 -220
95 0 146 29 200 115 26 40 27 175 3 220 -23 42 -67 85 -105 101 -50 21 -156
18 -204 -6 -46 -24 -96 -88 -105 -136 -8 -45 -21 -51 -29 -14 -28 126 -136
194 -270 168z m161 -60 c98 -66 99 -248 0 -323 -78 -59 -218 -38 -266 41 -24
38 -36 123 -26 178 9 46 50 94 101 118 54 25 142 19 191 -14z m444 10 c59 -30
90 -89 90 -170 0 -73 -17 -114 -63 -155 -41 -36 -87 -48 -154 -40 -103 11
-169 115 -148 236 15 87 93 151 185 151 28 0 63 -9 90 -22z"/>
<path d="M639 347 c-55 -42 -51 -189 6 -211 24 -9 64 -7 85 4 38 20 53 126 25
179 -20 39 -82 54 -116 28z m75 -43 c35 -34 13 -134 -29 -134 -26 0 -45 31
-45 75 0 44 19 75 45 75 7 0 21 -7 29 -16z"/>
<path d="M1092 338 c-27 -30 -36 -68 -27 -124 8 -56 34 -84 79 -84 59 0 80 27
84 108 4 65 2 73 -21 96 -34 34 -85 35 -115 4z m88 -37 c14 -27 13 -104 -2
-119 -32 -32 -78 3 -78 61 0 65 55 104 80 58z"/>
<path d="M56 449 c-23 -18 -26 -28 -26 -80 0 -51 4 -64 26 -85 20 -21 31 -25
58 -20 33 6 34 5 39 -31 3 -25 -2 -54 -14 -82 -26 -59 -24 -86 7 -110 21 -16
41 -21 90 -21 78 0 112 12 124 46 8 21 6 35 -10 66 -12 24 -20 58 -20 89 l0
51 35 -6 c31 -6 40 -3 66 24 30 29 31 34 25 83 -5 32 -16 61 -28 75 -21 21
-28 22 -183 22 -149 0 -164 -2 -189 -21z m364 -84 l0 -65 -40 0 c-39 0 -39 1
-33 30 5 28 4 30 -26 30 l-31 0 0 -121 c0 -116 1 -121 20 -116 17 4 20 0 20
-29 l0 -34 -90 0 -90 0 0 30 c0 23 4 30 20 30 19 0 20 7 20 120 l0 120 -25 0
c-21 0 -25 -5 -25 -30 0 -28 -2 -30 -40 -30 l-40 0 0 65 0 65 180 0 180 0 0
-65z"/>
<path d="M1411 445 c-26 -34 -26 -52 -1 -90 29 -43 29 -181 0 -218 -27 -34
-25 -63 5 -92 23 -24 29 -25 165 -25 136 0 142 1 165 25 35 34 36 121 2 153
-29 28 -78 29 -102 2 -34 -37 -45 -26 -45 48 0 49 5 76 20 100 48 78 15 115
-105 120 -79 4 -83 3 -104 -23z m197 -47 c-2 -25 -8 -33 -23 -33 -19 0 -20 -8
-23 -117 l-3 -118 51 0 c49 0 50 1 50 30 0 28 3 30 38 30 l37 0 0 -65 0 -65
-155 0 -155 0 1 32 c1 28 5 32 23 30 21 -3 21 0 21 123 0 122 -1 126 -20 120
-17 -6 -20 -2 -20 29 l0 36 91 0 90 0 -3 -32z"/>
<path d="M2518 403 c-31 -35 -78 -130 -78 -157 0 -30 30 -94 68 -144 41 -54
38 -28 -8 61 l-43 84 47 86 c44 81 50 110 14 70z"/>
</g>
</svg>
